# xmcd
#
# Track frame offsets:
#	183
#	16393
#	28315
#	50243
#	62298
#	80963
#	97920
#	116560
#	129165
#	142803
#	154753
#	170725
#	185333
#	199778
#	215258
#
# Disc length: 3087 seconds
#
# Revision: 1
# Processed by: cddbd v1.5.2PL0 Copyright (c) Steve Scherf et al.
# Submitted via: audiograbber 1.83.01
#
DISCID=cd0c0d0f
DTITLE=AA.VV. - 032 - 'O paese d' 'o sole
DYEAR=1994
DGENRE=Folklore
TTITLE0=N.Gallo - 'O paese d' 'o sole
TTITLE1=G.Christian - Paese mio
TTITLE2=S.Bruni - Il sole è nato a Napoli
TTITLE3=E.Fiume - Nustalgia napulitana
TTITLE4=L.Lualdi - Napoli c'est fini
TTITLE5=N.Gallo - 'A canzone 'e Napule
TTITLE6=P.Mauro - Cu' tte a Santa Lucia
TTITLE7=C.Villa - Acquarello napoletano
TTITLE8=F.Cigliano - Simmo... 'e Napule paisa'
TTITLE9=S.Bruni - Napule è 'na canzone
TTITLE10=G.Vanorio - Napule ca se ne va
TTITLE11=M.Paris - Pulcinella 'o core 'e Napule
TTITLE12=L.Glori - Napule sole mio
TTITLE13=C.Villa - Napule sotto e 'ngoppa
TTITLE14=N.Gallo - Napule ca se sceta
EXTD=
EXTT0=
EXTT1=
EXTT2=
EXTT3=
EXTT4=
EXTT5=
EXTT6=
EXTT7=
EXTT8=
EXTT9=
EXTT10=
EXTT11=
EXTT12=
EXTT13=
EXTT14=
PLAYORDER=
